<svg width="204" height="35" viewBox="0 0 204 35" fill="none" xmlns="http://www.w3.org/2000/svg">
<path d="M0.227273 35V0.0909081H4.45455V31.25H20.6818V35H0.227273ZM30.8622 35H26.4304L39.2486 0.0909081H43.6122L56.4304 35H51.9986L41.5668 5.61364H41.294L30.8622 35ZM32.4986 21.3636H50.3622V25.1136H32.4986V21.3636ZM61.8679 35V0.0909081H73.6634C76.3906 0.0909081 78.6293 0.556817 80.3793 1.48864C82.1293 2.40909 83.4247 3.67614 84.2656 5.28977C85.1065 6.90341 85.527 8.73864 85.527 10.7955C85.527 12.8523 85.1065 14.6761 84.2656 16.267C83.4247 17.858 82.1349 19.108 80.3963 20.017C78.6577 20.9148 76.4361 21.3636 73.7315 21.3636H64.1861V17.5455H73.5952C75.4588 17.5455 76.9588 17.2727 78.0952 16.7273C79.2429 16.1818 80.0724 15.4091 80.5838 14.4091C81.1065 13.3977 81.3679 12.1932 81.3679 10.7955C81.3679 9.39773 81.1065 8.17614 80.5838 7.13068C80.0611 6.08523 79.2259 5.27841 78.0781 4.71023C76.9304 4.13068 75.4134 3.84091 73.527 3.84091H66.0952V35H61.8679ZM78.2997 19.3182L86.8906 35H81.9815L73.527 19.3182H78.2997ZM94.0028 35H89.571L102.389 0.0909081H106.753L119.571 35H115.139L104.707 5.61364H104.435L94.0028 35ZM95.6392 21.3636H113.503V25.1136H95.6392V21.3636ZM123.159 0.0909081L133.523 29.4773H133.932L144.295 0.0909081H148.727L135.909 35H131.545L118.727 0.0909081H123.159ZM154.165 35V0.0909081H175.233V3.84091H158.392V15.6364H174.142V19.3864H158.392V31.25H175.506V35H154.165ZM182.852 35V0.0909081H187.08V31.25H203.307V35H182.852Z" fill="white"/>
</svg>
